<mxfile host="65bd71144e">
    <diagram id="O0kjptVvf6UF-LGHqbaI" name="Page-1">
        <mxGraphModel dx="1455" dy="1503" grid="1" gridSize="10" guides="1" tooltips="1" connect="1" arrows="1" fold="1" page="1" pageScale="1" pageWidth="827" pageHeight="1169" background="#ffffff" math="0" shadow="0">
            <root>
                <mxCell id="0"/>
                <mxCell id="1" parent="0"/>
                <mxCell id="2" value="&lt;font style=&quot;font-size: 12px;&quot;&gt;&lt;b&gt;OFFICE ADMIN&lt;/b&gt;&lt;/font&gt;" style="html=1;dashed=0;whitespace=wrap;fillColor=#dae8fc;strokeColor=#6c8ebf;gradientColor=#7ea6e0;fontColor=#000000;" parent="1" vertex="1">
                    <mxGeometry x="39" y="20" width="180" height="50" as="geometry"/>
                </mxCell>
                <mxCell id="42" value="" style="edgeStyle=none;html=1;strokeColor=#000000;fontColor=#000000;entryX=0;entryY=0.5;entryDx=0;entryDy=0;startArrow=none;" parent="1" source="43" target="21" edge="1">
                    <mxGeometry relative="1" as="geometry">
                        <mxPoint x="553" y="145" as="targetPoint"/>
                    </mxGeometry>
                </mxCell>
                <mxCell id="4" value="&lt;b&gt;1.&lt;br&gt;Admin Login&lt;br&gt;&lt;/b&gt;" style="shape=ellipse;html=1;dashed=0;whitespace=wrap;perimeter=ellipsePerimeter;fontSize=12;fillColor=#f5f5f5;gradientColor=#b3b3b3;strokeColor=#666666;fontColor=#000000;" parent="1" vertex="1">
                    <mxGeometry x="359" y="110" width="130" height="70" as="geometry"/>
                </mxCell>
                <mxCell id="50" value="" style="edgeStyle=none;html=1;strokeColor=#000000;fontColor=#000000;entryX=0;entryY=0.5;entryDx=0;entryDy=0;startArrow=none;" parent="1" source="51" target="22" edge="1">
                    <mxGeometry relative="1" as="geometry">
                        <mxPoint x="594" y="265" as="targetPoint"/>
                    </mxGeometry>
                </mxCell>
                <mxCell id="13" value="&lt;b&gt;2.&lt;br&gt;Update Password&lt;br&gt;&lt;/b&gt;" style="shape=ellipse;html=1;dashed=0;whitespace=wrap;perimeter=ellipsePerimeter;fontSize=12;fillColor=#f5f5f5;gradientColor=#b3b3b3;strokeColor=#666666;fontColor=#000000;" parent="1" vertex="1">
                    <mxGeometry x="359" y="230" width="130" height="70" as="geometry"/>
                </mxCell>
                <mxCell id="59" value="" style="edgeStyle=none;html=1;strokeColor=#000000;fontColor=#000000;startArrow=none;exitX=1;exitY=0.5;exitDx=0;exitDy=0;entryX=0.003;entryY=0.201;entryDx=0;entryDy=0;entryPerimeter=0;" parent="1" source="64" target="23" edge="1">
                    <mxGeometry relative="1" as="geometry">
                        <mxPoint x="669" y="380" as="targetPoint"/>
                    </mxGeometry>
                </mxCell>
                <mxCell id="14" value="&lt;b&gt;3.&lt;br&gt;Off Days&lt;br&gt;&lt;/b&gt;" style="shape=ellipse;html=1;dashed=0;whitespace=wrap;perimeter=ellipsePerimeter;fontSize=12;fillColor=#f5f5f5;gradientColor=#b3b3b3;strokeColor=#666666;fontColor=#000000;" parent="1" vertex="1">
                    <mxGeometry x="359" y="350" width="130" height="70" as="geometry"/>
                </mxCell>
                <mxCell id="89" value="" style="edgeStyle=none;html=1;strokeColor=#000000;fontColor=#000000;entryX=0.001;entryY=0.168;entryDx=0;entryDy=0;entryPerimeter=0;exitX=1;exitY=0.5;exitDx=0;exitDy=0;startArrow=none;" parent="1" source="90" target="24" edge="1">
                    <mxGeometry relative="1" as="geometry">
                        <mxPoint x="489" y="498" as="sourcePoint"/>
                        <mxPoint x="594" y="505" as="targetPoint"/>
                    </mxGeometry>
                </mxCell>
                <mxCell id="15" value="&lt;b&gt;4.&lt;br&gt;Department&lt;br&gt;&lt;/b&gt;" style="shape=ellipse;html=1;dashed=0;whitespace=wrap;perimeter=ellipsePerimeter;fontSize=12;fillColor=#f5f5f5;gradientColor=#b3b3b3;strokeColor=#666666;fontColor=#000000;" parent="1" vertex="1">
                    <mxGeometry x="359" y="470" width="130" height="70" as="geometry"/>
                </mxCell>
                <mxCell id="102" value="" style="edgeStyle=none;html=1;strokeColor=#000000;fontColor=#000000;entryX=-0.003;entryY=0.164;entryDx=0;entryDy=0;startArrow=none;exitX=1;exitY=0.5;exitDx=0;exitDy=0;entryPerimeter=0;" parent="1" source="105" target="25" edge="1">
                    <mxGeometry relative="1" as="geometry">
                        <mxPoint x="599" y="617.5" as="sourcePoint"/>
                        <mxPoint x="594" y="625" as="targetPoint"/>
                    </mxGeometry>
                </mxCell>
                <mxCell id="16" value="&lt;b&gt;5.&lt;br&gt;Staff Details&lt;br&gt;&lt;/b&gt;" style="shape=ellipse;html=1;dashed=0;whitespace=wrap;perimeter=ellipsePerimeter;fontSize=12;fillColor=#f5f5f5;gradientColor=#b3b3b3;strokeColor=#666666;fontColor=#000000;" parent="1" vertex="1">
                    <mxGeometry x="359" y="590" width="130" height="70" as="geometry"/>
                </mxCell>
                <mxCell id="122" value="" style="edgeStyle=none;html=1;strokeColor=#000000;fontColor=#000000;entryX=0;entryY=0.5;entryDx=0;entryDy=0;startArrow=none;" parent="1" source="123" target="26" edge="1">
                    <mxGeometry relative="1" as="geometry">
                        <mxPoint x="594" y="744.9999999999998" as="targetPoint"/>
                    </mxGeometry>
                </mxCell>
                <mxCell id="17" value="&lt;b&gt;6.&lt;br&gt;Salary Details&lt;br&gt;&lt;/b&gt;" style="shape=ellipse;html=1;dashed=0;whitespace=wrap;perimeter=ellipsePerimeter;fontSize=12;fillColor=#f5f5f5;gradientColor=#b3b3b3;strokeColor=#666666;fontColor=#000000;" parent="1" vertex="1">
                    <mxGeometry x="359" y="710" width="130" height="70" as="geometry"/>
                </mxCell>
                <mxCell id="18" value="&lt;b&gt;7.&lt;br&gt;Staff Leave&lt;br&gt;&lt;/b&gt;" style="shape=ellipse;html=1;dashed=0;whitespace=wrap;perimeter=ellipsePerimeter;fontSize=12;fillColor=#f5f5f5;gradientColor=#b3b3b3;strokeColor=#666666;fontColor=#000000;" parent="1" vertex="1">
                    <mxGeometry x="359" y="830" width="130" height="70" as="geometry"/>
                </mxCell>
                <mxCell id="144" value="" style="edgeStyle=none;html=1;strokeColor=#000000;fontColor=#000000;entryX=0;entryY=0.5;entryDx=0;entryDy=0;startArrow=none;" parent="1" source="145" target="29" edge="1">
                    <mxGeometry relative="1" as="geometry">
                        <mxPoint x="594" y="985" as="targetPoint"/>
                    </mxGeometry>
                </mxCell>
                <mxCell id="19" value="&lt;b&gt;8.&lt;br&gt;Attendance&lt;br&gt;&lt;/b&gt;" style="shape=ellipse;html=1;dashed=0;whitespace=wrap;perimeter=ellipsePerimeter;fontSize=12;fillColor=#f5f5f5;gradientColor=#b3b3b3;strokeColor=#666666;fontColor=#000000;" parent="1" vertex="1">
                    <mxGeometry x="359" y="950" width="130" height="70" as="geometry"/>
                </mxCell>
                <mxCell id="152" value="" style="edgeStyle=none;html=1;strokeColor=#000000;fontColor=#000000;entryX=0;entryY=0.5;entryDx=0;entryDy=0;startArrow=none;" parent="1" source="153" target="30" edge="1">
                    <mxGeometry relative="1" as="geometry">
                        <mxPoint x="594" y="1105" as="targetPoint"/>
                    </mxGeometry>
                </mxCell>
                <mxCell id="20" value="&lt;b&gt;9.&lt;br&gt;Work Details&lt;br&gt;&lt;/b&gt;" style="shape=ellipse;html=1;dashed=0;whitespace=wrap;perimeter=ellipsePerimeter;fontSize=12;fillColor=#f5f5f5;gradientColor=#b3b3b3;strokeColor=#666666;fontColor=#000000;" parent="1" vertex="1">
                    <mxGeometry x="359" y="1070" width="130" height="70" as="geometry"/>
                </mxCell>
                <mxCell id="21" value="&lt;font color=&quot;#000000&quot;&gt;admin&lt;/font&gt;" style="html=1;dashed=0;whitespace=wrap;shape=partialRectangle;right=0;left=0;fontSize=12;fillColor=#fad7ac;strokeColor=#b46504;" parent="1" vertex="1">
                    <mxGeometry x="689" y="130" width="100" height="30" as="geometry"/>
                </mxCell>
                <mxCell id="22" value="&lt;font color=&quot;#000000&quot;&gt;admin&lt;/font&gt;" style="html=1;dashed=0;whitespace=wrap;shape=partialRectangle;right=0;left=0;fontSize=12;fillColor=#fad7ac;strokeColor=#b46504;" parent="1" vertex="1">
                    <mxGeometry x="689" y="250" width="100" height="30" as="geometry"/>
                </mxCell>
                <mxCell id="23" value="&lt;font color=&quot;#000000&quot;&gt;tblleave&lt;/font&gt;" style="html=1;dashed=0;whitespace=wrap;shape=partialRectangle;right=0;left=0;fontSize=12;fillColor=#fad7ac;strokeColor=#b46504;" parent="1" vertex="1">
                    <mxGeometry x="689" y="370" width="100" height="30" as="geometry"/>
                </mxCell>
                <mxCell id="24" value="&lt;font color=&quot;#000000&quot;&gt;tblmasterdept&lt;/font&gt;" style="html=1;dashed=0;whitespace=wrap;shape=partialRectangle;right=0;left=0;fontSize=12;fillColor=#fad7ac;strokeColor=#b46504;" parent="1" vertex="1">
                    <mxGeometry x="689" y="490" width="100" height="30" as="geometry"/>
                </mxCell>
                <mxCell id="25" value="&lt;font color=&quot;#000000&quot;&gt;tblstaff&lt;/font&gt;" style="html=1;dashed=0;whitespace=wrap;shape=partialRectangle;right=0;left=0;fontSize=12;fillColor=#fad7ac;strokeColor=#b46504;" parent="1" vertex="1">
                    <mxGeometry x="689" y="610" width="100" height="30" as="geometry"/>
                </mxCell>
                <mxCell id="26" value="&lt;font color=&quot;#000000&quot;&gt;tblsalary&lt;/font&gt;" style="html=1;dashed=0;whitespace=wrap;shape=partialRectangle;right=0;left=0;fontSize=12;fillColor=#fad7ac;strokeColor=#b46504;" parent="1" vertex="1">
                    <mxGeometry x="689" y="730" width="100" height="30" as="geometry"/>
                </mxCell>
                <mxCell id="27" value="&lt;font color=&quot;#000000&quot;&gt;tblstaffleave&lt;/font&gt;&lt;span style=&quot;color: rgba(0, 0, 0, 0); font-family: monospace; font-size: 0px; text-align: start;&quot;&gt;%3CmxGraphModel%3E%3Croot%3E%3CmxCell%20id%3D%220%22%2F%3E%3CmxCell%20id%3D%221%22%20parent%3D%220%22%2F%3E%3CmxCell%20id%3D%222%22%20value%3D%22%26lt%3Bfont%20color%3D%26quot%3B%23000000%26quot%3B%26gt%3Btblsalary%26lt%3B%2Ffont%26gt%3B%22%20style%3D%22html%3D1%3Bdashed%3D0%3Bwhitespace%3Dwrap%3Bshape%3DpartialRectangle%3Bright%3D0%3Bleft%3D0%3BfontSize%3D12%3BfillColor%3Dnone%3BstrokeColor%3D%23000000%3B%22%20vertex%3D%221%22%20parent%3D%221%22%3E%3CmxGeometry%20x%3D%22690%22%20y%3D%22740%22%20width%3D%22100%22%20height%3D%2230%22%20as%3D%22geometry%22%2F%3E%3C%2FmxCell%3E%3C%2Froot%3E%3C%2FmxGraphModel%3E&lt;/span&gt;" style="html=1;dashed=0;whitespace=wrap;shape=partialRectangle;right=0;left=0;fontSize=12;fillColor=#fad7ac;strokeColor=#b46504;" parent="1" vertex="1">
                    <mxGeometry x="689" y="850" width="100" height="30" as="geometry"/>
                </mxCell>
                <mxCell id="29" value="&lt;font color=&quot;#000000&quot;&gt;tblstaffabsent&lt;/font&gt;" style="html=1;dashed=0;whitespace=wrap;shape=partialRectangle;right=0;left=0;fontSize=12;fillColor=#fad7ac;strokeColor=#b46504;" parent="1" vertex="1">
                    <mxGeometry x="689" y="970" width="100" height="30" as="geometry"/>
                </mxCell>
                <mxCell id="30" value="&lt;font color=&quot;#000000&quot;&gt;tblstaffworkdetails&lt;/font&gt;" style="html=1;dashed=0;whitespace=wrap;shape=partialRectangle;right=0;left=0;fontSize=12;fillColor=#fad7ac;strokeColor=#b46504;" parent="1" vertex="1">
                    <mxGeometry x="689" y="1090" width="100" height="30" as="geometry"/>
                </mxCell>
                <mxCell id="39" value="" style="endArrow=none;html=1;strokeColor=#000000;entryX=0;entryY=0.5;entryDx=0;entryDy=0;exitX=0.831;exitY=0.999;exitDx=0;exitDy=0;exitPerimeter=0;" parent="1" source="2" target="38" edge="1">
                    <mxGeometry width="50" height="50" relative="1" as="geometry">
                        <mxPoint x="188" y="70" as="sourcePoint"/>
                        <mxPoint x="209" y="140" as="targetPoint"/>
                        <Array as="points">
                            <mxPoint x="189" y="145"/>
                        </Array>
                    </mxGeometry>
                </mxCell>
                <mxCell id="40" value="" style="edgeStyle=none;html=1;strokeColor=#000000;fontColor=#000000;" parent="1" source="38" target="4" edge="1">
                    <mxGeometry relative="1" as="geometry"/>
                </mxCell>
                <mxCell id="38" value="Login details" style="text;html=1;strokeColor=none;fillColor=none;align=center;verticalAlign=middle;whiteSpace=wrap;rounded=0;fontColor=#000000;" parent="1" vertex="1">
                    <mxGeometry x="229" y="130" width="70" height="30" as="geometry"/>
                </mxCell>
                <mxCell id="44" value="" style="edgeStyle=none;html=1;strokeColor=#000000;fontColor=#000000;entryX=0;entryY=0.5;entryDx=0;entryDy=0;endArrow=none;" parent="1" source="4" target="43" edge="1">
                    <mxGeometry relative="1" as="geometry">
                        <mxPoint x="448" y="145" as="sourcePoint"/>
                        <mxPoint x="659" y="145" as="targetPoint"/>
                    </mxGeometry>
                </mxCell>
                <mxCell id="43" value="Login details" style="text;html=1;strokeColor=none;fillColor=none;align=center;verticalAlign=middle;whiteSpace=wrap;rounded=0;fontColor=#000000;" parent="1" vertex="1">
                    <mxGeometry x="519" y="130" width="70" height="30" as="geometry"/>
                </mxCell>
                <mxCell id="45" value="" style="endArrow=none;html=1;strokeColor=#000000;entryX=0;entryY=0.5;entryDx=0;entryDy=0;" parent="1" target="46" edge="1">
                    <mxGeometry width="50" height="50" relative="1" as="geometry">
                        <mxPoint x="179" y="70" as="sourcePoint"/>
                        <mxPoint x="179" y="270" as="targetPoint"/>
                        <Array as="points">
                            <mxPoint x="179" y="265"/>
                        </Array>
                    </mxGeometry>
                </mxCell>
                <mxCell id="48" value="" style="edgeStyle=none;html=1;strokeColor=#000000;fontColor=#000000;" parent="1" source="46" target="13" edge="1">
                    <mxGeometry relative="1" as="geometry"/>
                </mxCell>
                <mxCell id="46" value="Update password details" style="text;html=1;strokeColor=none;fillColor=none;align=center;verticalAlign=middle;whiteSpace=wrap;rounded=0;fontColor=#000000;" parent="1" vertex="1">
                    <mxGeometry x="189" y="250" width="140" height="30" as="geometry"/>
                </mxCell>
                <mxCell id="52" value="" style="edgeStyle=none;html=1;strokeColor=#000000;fontColor=#000000;entryX=0;entryY=0.5;entryDx=0;entryDy=0;endArrow=none;" parent="1" source="13" target="51" edge="1">
                    <mxGeometry relative="1" as="geometry">
                        <mxPoint x="489" y="265" as="sourcePoint"/>
                        <mxPoint x="659" y="265" as="targetPoint"/>
                    </mxGeometry>
                </mxCell>
                <mxCell id="51" value="Update password details" style="text;html=1;strokeColor=none;fillColor=none;align=center;verticalAlign=middle;whiteSpace=wrap;rounded=0;fontColor=#000000;" parent="1" vertex="1">
                    <mxGeometry x="519" y="250" width="140" height="30" as="geometry"/>
                </mxCell>
                <mxCell id="53" value="" style="endArrow=none;html=1;strokeColor=#000000;entryX=0;entryY=0.5;entryDx=0;entryDy=0;" parent="1" target="56" edge="1">
                    <mxGeometry width="50" height="50" relative="1" as="geometry">
                        <mxPoint x="169" y="70" as="sourcePoint"/>
                        <mxPoint x="189" y="375" as="targetPoint"/>
                        <Array as="points">
                            <mxPoint x="169" y="376"/>
                        </Array>
                    </mxGeometry>
                </mxCell>
                <mxCell id="57" value="" style="edgeStyle=none;html=1;strokeColor=#000000;fontColor=#000000;entryX=0.026;entryY=0.378;entryDx=0;entryDy=0;entryPerimeter=0;exitX=1;exitY=0.5;exitDx=0;exitDy=0;" parent="1" source="56" target="14" edge="1">
                    <mxGeometry relative="1" as="geometry">
                        <mxPoint x="319" y="376" as="sourcePoint"/>
                    </mxGeometry>
                </mxCell>
                <mxCell id="56" value="Add off days details" style="text;html=1;strokeColor=none;fillColor=none;align=center;verticalAlign=middle;whiteSpace=wrap;rounded=0;fontColor=#000000;" parent="1" vertex="1">
                    <mxGeometry x="209" y="366" width="110" height="20" as="geometry"/>
                </mxCell>
                <mxCell id="65" value="" style="edgeStyle=none;html=1;strokeColor=#000000;fontColor=#000000;endArrow=none;exitX=0.98;exitY=0.361;exitDx=0;exitDy=0;exitPerimeter=0;entryX=0;entryY=0.5;entryDx=0;entryDy=0;" parent="1" target="64" edge="1">
                    <mxGeometry relative="1" as="geometry">
                        <mxPoint x="486.4" y="376" as="sourcePoint"/>
                        <mxPoint x="519" y="376" as="targetPoint"/>
                    </mxGeometry>
                </mxCell>
                <mxCell id="64" value="Add off days details" style="text;html=1;strokeColor=none;fillColor=none;align=center;verticalAlign=middle;whiteSpace=wrap;rounded=0;fontColor=#000000;" parent="1" vertex="1">
                    <mxGeometry x="519" y="371" width="110" height="10" as="geometry"/>
                </mxCell>
                <mxCell id="67" value="" style="endArrow=classic;html=1;strokeColor=#000000;fontColor=#000000;startArrow=none;exitX=0;exitY=0.5;exitDx=0;exitDy=0;" parent="1" source="69" edge="1">
                    <mxGeometry width="50" height="50" relative="1" as="geometry">
                        <mxPoint x="519" y="394.5" as="sourcePoint"/>
                        <mxPoint x="486" y="395" as="targetPoint"/>
                    </mxGeometry>
                </mxCell>
                <mxCell id="68" value="" style="endArrow=classic;html=1;strokeColor=#000000;fontColor=#000000;exitX=0;exitY=0.5;exitDx=0;exitDy=0;entryX=0.665;entryY=1.006;entryDx=0;entryDy=0;entryPerimeter=0;" parent="1" source="71" target="2" edge="1">
                    <mxGeometry width="50" height="50" relative="1" as="geometry">
                        <mxPoint x="349" y="540" as="sourcePoint"/>
                        <mxPoint x="139" y="80" as="targetPoint"/>
                        <Array as="points">
                            <mxPoint x="159" y="395"/>
                        </Array>
                    </mxGeometry>
                </mxCell>
                <mxCell id="71" value="Get off days details" style="text;html=1;strokeColor=none;fillColor=none;align=center;verticalAlign=middle;whiteSpace=wrap;rounded=0;fontColor=#000000;" parent="1" vertex="1">
                    <mxGeometry x="209" y="385" width="110" height="20" as="geometry"/>
                </mxCell>
                <mxCell id="77" value="" style="endArrow=classic;html=1;strokeColor=#000000;fontColor=#000000;exitX=0.022;exitY=0.647;exitDx=0;exitDy=0;exitPerimeter=0;entryX=1;entryY=0.5;entryDx=0;entryDy=0;" parent="1" source="14" target="71" edge="1">
                    <mxGeometry width="50" height="50" relative="1" as="geometry">
                        <mxPoint x="259" y="500" as="sourcePoint"/>
                        <mxPoint x="319" y="395" as="targetPoint"/>
                    </mxGeometry>
                </mxCell>
                <mxCell id="79" value="" style="endArrow=none;html=1;strokeColor=#000000;fontColor=#000000;exitX=-0.001;exitY=0.841;exitDx=0;exitDy=0;entryX=1;entryY=0.5;entryDx=0;entryDy=0;exitPerimeter=0;" parent="1" source="23" target="69" edge="1">
                    <mxGeometry width="50" height="50" relative="1" as="geometry">
                        <mxPoint x="689.0000000000001" y="400" as="sourcePoint"/>
                        <mxPoint x="649" y="393" as="targetPoint"/>
                    </mxGeometry>
                </mxCell>
                <mxCell id="69" value="Get off days details" style="text;html=1;strokeColor=none;fillColor=none;align=center;verticalAlign=middle;whiteSpace=wrap;rounded=0;fontColor=#000000;" parent="1" vertex="1">
                    <mxGeometry x="519" y="390" width="110" height="10" as="geometry"/>
                </mxCell>
                <mxCell id="85" value="" style="endArrow=none;html=1;strokeColor=#000000;entryX=0;entryY=0.5;entryDx=0;entryDy=0;" parent="1" target="87" edge="1">
                    <mxGeometry width="50" height="50" relative="1" as="geometry">
                        <mxPoint x="149" y="70" as="sourcePoint"/>
                        <mxPoint x="149" y="490" as="targetPoint"/>
                        <Array as="points">
                            <mxPoint x="149" y="497"/>
                        </Array>
                    </mxGeometry>
                </mxCell>
                <mxCell id="86" value="" style="edgeStyle=none;html=1;strokeColor=#000000;fontColor=#000000;entryX=0.018;entryY=0.388;entryDx=0;entryDy=0;entryPerimeter=0;exitX=1;exitY=0.5;exitDx=0;exitDy=0;" parent="1" source="87" target="15" edge="1">
                    <mxGeometry relative="1" as="geometry">
                        <mxPoint x="319" y="497" as="sourcePoint"/>
                        <mxPoint x="362.38" y="490.46000000000004" as="targetPoint"/>
                    </mxGeometry>
                </mxCell>
                <mxCell id="87" value="Department Details" style="text;html=1;strokeColor=none;fillColor=none;align=center;verticalAlign=middle;whiteSpace=wrap;rounded=0;fontColor=#000000;" parent="1" vertex="1">
                    <mxGeometry x="204" y="490" width="111" height="14" as="geometry"/>
                </mxCell>
                <mxCell id="91" value="" style="edgeStyle=none;html=1;strokeColor=#000000;fontColor=#000000;entryX=0;entryY=0.5;entryDx=0;entryDy=0;exitX=0.979;exitY=0.359;exitDx=0;exitDy=0;exitPerimeter=0;endArrow=none;" parent="1" source="15" target="90" edge="1">
                    <mxGeometry relative="1" as="geometry">
                        <mxPoint x="487.30999999999995" y="496.5999999999999" as="sourcePoint"/>
                        <mxPoint x="689.0999999999999" y="496.05999999999995" as="targetPoint"/>
                    </mxGeometry>
                </mxCell>
                <mxCell id="90" value="Department details" style="text;html=1;strokeColor=none;fillColor=none;align=center;verticalAlign=middle;whiteSpace=wrap;rounded=0;fontColor=#000000;" parent="1" vertex="1">
                    <mxGeometry x="519" y="490" width="110" height="10" as="geometry"/>
                </mxCell>
                <mxCell id="93" value="Update,delete,view details" style="text;html=1;strokeColor=none;fillColor=none;align=center;verticalAlign=middle;whiteSpace=wrap;rounded=0;fontColor=#000000;" parent="1" vertex="1">
                    <mxGeometry x="519" y="510" width="150" height="10" as="geometry"/>
                </mxCell>
                <mxCell id="95" value="" style="endArrow=none;html=1;strokeColor=#000000;fontColor=#000000;entryX=1;entryY=0.5;entryDx=0;entryDy=0;" parent="1" target="93" edge="1">
                    <mxGeometry width="50" height="50" relative="1" as="geometry">
                        <mxPoint x="689" y="515" as="sourcePoint"/>
                        <mxPoint x="629.1" y="540" as="targetPoint"/>
                    </mxGeometry>
                </mxCell>
                <mxCell id="96" value="" style="endArrow=classic;html=1;strokeColor=#000000;fontColor=#000000;startArrow=none;exitX=0;exitY=0.5;exitDx=0;exitDy=0;entryX=0.972;entryY=0.644;entryDx=0;entryDy=0;entryPerimeter=0;" parent="1" source="93" target="15" edge="1">
                    <mxGeometry width="50" height="50" relative="1" as="geometry">
                        <mxPoint x="519" y="530" as="sourcePoint"/>
                        <mxPoint x="486" y="530" as="targetPoint"/>
                    </mxGeometry>
                </mxCell>
                <mxCell id="97" value="" style="endArrow=classic;html=1;strokeColor=#000000;fontColor=#000000;exitX=0.019;exitY=0.624;exitDx=0;exitDy=0;exitPerimeter=0;entryX=1;entryY=0.5;entryDx=0;entryDy=0;" parent="1" source="15" target="98" edge="1">
                    <mxGeometry width="50" height="50" relative="1" as="geometry">
                        <mxPoint x="359" y="550" as="sourcePoint"/>
                        <mxPoint x="319" y="515" as="targetPoint"/>
                    </mxGeometry>
                </mxCell>
                <mxCell id="98" value="Update,delete,view details" style="text;html=1;strokeColor=none;fillColor=none;align=center;verticalAlign=middle;whiteSpace=wrap;rounded=0;fontColor=#000000;" parent="1" vertex="1">
                    <mxGeometry x="169" y="507" width="145.5" height="14" as="geometry"/>
                </mxCell>
                <mxCell id="99" value="" style="endArrow=classic;html=1;strokeColor=#000000;fontColor=#000000;exitX=0;exitY=0.5;exitDx=0;exitDy=0;entryX=0.554;entryY=1.002;entryDx=0;entryDy=0;entryPerimeter=0;" parent="1" source="98" target="2" edge="1">
                    <mxGeometry width="50" height="50" relative="1" as="geometry">
                        <mxPoint x="168.99999999999994" y="510" as="sourcePoint"/>
                        <mxPoint x="139" y="180" as="targetPoint"/>
                        <Array as="points">
                            <mxPoint x="139" y="514"/>
                        </Array>
                    </mxGeometry>
                </mxCell>
                <mxCell id="100" value="" style="endArrow=none;html=1;strokeColor=#000000;entryX=0;entryY=0.5;entryDx=0;entryDy=0;" parent="1" target="111" edge="1">
                    <mxGeometry width="50" height="50" relative="1" as="geometry">
                        <mxPoint x="129" y="70" as="sourcePoint"/>
                        <mxPoint x="199" y="625" as="targetPoint"/>
                        <Array as="points">
                            <mxPoint x="129" y="615"/>
                        </Array>
                    </mxGeometry>
                </mxCell>
                <mxCell id="104" value="" style="edgeStyle=none;html=1;strokeColor=#000000;fontColor=#000000;entryX=0;entryY=0.5;entryDx=0;entryDy=0;endArrow=none;exitX=0.976;exitY=0.357;exitDx=0;exitDy=0;exitPerimeter=0;" parent="1" source="16" target="105" edge="1">
                    <mxGeometry relative="1" as="geometry">
                        <mxPoint x="489" y="615" as="sourcePoint"/>
                        <mxPoint x="519" y="625" as="targetPoint"/>
                    </mxGeometry>
                </mxCell>
                <mxCell id="105" value="Staff details" style="text;html=1;strokeColor=none;fillColor=none;align=center;verticalAlign=middle;whiteSpace=wrap;rounded=0;fontColor=#000000;" parent="1" vertex="1">
                    <mxGeometry x="519" y="610" width="70" height="10" as="geometry"/>
                </mxCell>
                <mxCell id="106" value="Update,delete,view details" style="text;html=1;strokeColor=none;fillColor=none;align=center;verticalAlign=middle;whiteSpace=wrap;rounded=0;fontColor=#000000;" parent="1" vertex="1">
                    <mxGeometry x="517" y="630" width="150" height="10" as="geometry"/>
                </mxCell>
                <mxCell id="107" value="" style="endArrow=none;html=1;strokeColor=#000000;fontColor=#000000;exitX=-0.003;exitY=0.833;exitDx=0;exitDy=0;exitPerimeter=0;entryX=1;entryY=0.5;entryDx=0;entryDy=0;" parent="1" source="25" target="106" edge="1">
                    <mxGeometry width="50" height="50" relative="1" as="geometry">
                        <mxPoint x="667" y="660" as="sourcePoint"/>
                        <mxPoint x="617" y="680" as="targetPoint"/>
                    </mxGeometry>
                </mxCell>
                <mxCell id="108" value="" style="endArrow=classic;html=1;strokeColor=#000000;fontColor=#000000;startArrow=none;exitX=0;exitY=0.5;exitDx=0;exitDy=0;entryX=0.978;entryY=0.644;entryDx=0;entryDy=0;entryPerimeter=0;" parent="1" source="106" target="16" edge="1">
                    <mxGeometry width="50" height="50" relative="1" as="geometry">
                        <mxPoint x="517" y="650" as="sourcePoint"/>
                        <mxPoint x="483.36" y="650.0799999999999" as="targetPoint"/>
                    </mxGeometry>
                </mxCell>
                <mxCell id="112" value="" style="edgeStyle=none;html=1;strokeColor=#000000;fontColor=#000000;entryX=0.026;entryY=0.346;entryDx=0;entryDy=0;entryPerimeter=0;" parent="1" source="111" target="16" edge="1">
                    <mxGeometry relative="1" as="geometry"/>
                </mxCell>
                <mxCell id="111" value="Staff Details" style="text;html=1;strokeColor=none;fillColor=none;align=center;verticalAlign=middle;whiteSpace=wrap;rounded=0;fontColor=#000000;" parent="1" vertex="1">
                    <mxGeometry x="205.37" y="608" width="72.75" height="14" as="geometry"/>
                </mxCell>
                <mxCell id="113" value="" style="endArrow=classic;html=1;strokeColor=#000000;fontColor=#000000;exitX=0.018;exitY=0.644;exitDx=0;exitDy=0;exitPerimeter=0;entryX=1;entryY=0.5;entryDx=0;entryDy=0;" parent="1" source="16" target="114" edge="1">
                    <mxGeometry width="50" height="50" relative="1" as="geometry">
                        <mxPoint x="359" y="635" as="sourcePoint"/>
                        <mxPoint x="309" y="635" as="targetPoint"/>
                    </mxGeometry>
                </mxCell>
                <mxCell id="114" value="Update,delete,view details" style="text;html=1;strokeColor=none;fillColor=none;align=center;verticalAlign=middle;whiteSpace=wrap;rounded=0;fontColor=#000000;" parent="1" vertex="1">
                    <mxGeometry x="169.5" y="628" width="145.5" height="14" as="geometry"/>
                </mxCell>
                <mxCell id="115" value="" style="endArrow=classic;html=1;strokeColor=#000000;fontColor=#000000;exitX=0;exitY=0.5;exitDx=0;exitDy=0;entryX=0.523;entryY=1.045;entryDx=0;entryDy=0;entryPerimeter=0;" parent="1" edge="1">
                    <mxGeometry width="50" height="50" relative="1" as="geometry">
                        <mxPoint x="170.5" y="634.9999999999999" as="sourcePoint"/>
                        <mxPoint x="118.83000000000004" y="70.25" as="targetPoint"/>
                        <Array as="points">
                            <mxPoint x="119" y="635"/>
                        </Array>
                    </mxGeometry>
                </mxCell>
                <mxCell id="117" value="" style="endArrow=none;html=1;strokeColor=#000000;entryX=0;entryY=0.5;entryDx=0;entryDy=0;" parent="1" target="119" edge="1">
                    <mxGeometry width="50" height="50" relative="1" as="geometry">
                        <mxPoint x="109" y="70" as="sourcePoint"/>
                        <mxPoint x="209" y="745" as="targetPoint"/>
                        <Array as="points">
                            <mxPoint x="109" y="745"/>
                        </Array>
                    </mxGeometry>
                </mxCell>
                <mxCell id="120" value="" style="edgeStyle=none;html=1;strokeColor=#000000;fontColor=#000000;" parent="1" source="119" target="17" edge="1">
                    <mxGeometry relative="1" as="geometry"/>
                </mxCell>
                <mxCell id="119" value="Salary Details" style="text;html=1;strokeColor=none;fillColor=none;align=center;verticalAlign=middle;whiteSpace=wrap;rounded=0;fontColor=#000000;" parent="1" vertex="1">
                    <mxGeometry x="209" y="738" width="85.88" height="14" as="geometry"/>
                </mxCell>
                <mxCell id="124" value="" style="edgeStyle=none;html=1;strokeColor=#000000;fontColor=#000000;entryX=0;entryY=0.5;entryDx=0;entryDy=0;endArrow=none;" parent="1" source="17" target="123" edge="1">
                    <mxGeometry relative="1" as="geometry">
                        <mxPoint x="489.00000000000114" y="744.9999999999998" as="sourcePoint"/>
                        <mxPoint x="689" y="744.9999999999998" as="targetPoint"/>
                    </mxGeometry>
                </mxCell>
                <mxCell id="125" value="" style="edgeStyle=none;html=1;strokeColor=#000000;fontColor=#000000;" parent="1" source="123" target="26" edge="1">
                    <mxGeometry relative="1" as="geometry"/>
                </mxCell>
                <mxCell id="123" value="Salary Details" style="text;html=1;strokeColor=none;fillColor=none;align=center;verticalAlign=middle;whiteSpace=wrap;rounded=0;fontColor=#000000;" parent="1" vertex="1">
                    <mxGeometry x="517" y="730" width="85" height="30" as="geometry"/>
                </mxCell>
                <mxCell id="126" value="" style="edgeStyle=none;html=1;strokeColor=#000000;fontColor=#000000;entryX=-0.011;entryY=0.171;entryDx=0;entryDy=0;startArrow=none;entryPerimeter=0;exitX=1;exitY=0.5;exitDx=0;exitDy=0;" parent="1" source="128" target="27" edge="1">
                    <mxGeometry relative="1" as="geometry">
                        <mxPoint x="629" y="855" as="sourcePoint"/>
                        <mxPoint x="678.7" y="860.0000000000001" as="targetPoint"/>
                    </mxGeometry>
                </mxCell>
                <mxCell id="127" value="" style="edgeStyle=none;html=1;strokeColor=#000000;fontColor=#000000;endArrow=none;exitX=0.977;exitY=0.352;exitDx=0;exitDy=0;exitPerimeter=0;entryX=0;entryY=0.5;entryDx=0;entryDy=0;" parent="1" source="18" target="128" edge="1">
                    <mxGeometry relative="1" as="geometry">
                        <mxPoint x="519" y="864.64" as="sourcePoint"/>
                        <mxPoint x="519" y="855" as="targetPoint"/>
                    </mxGeometry>
                </mxCell>
                <mxCell id="128" value="Staff leave request" style="text;html=1;strokeColor=none;fillColor=none;align=center;verticalAlign=middle;whiteSpace=wrap;rounded=0;fontColor=#000000;" parent="1" vertex="1">
                    <mxGeometry x="523" y="850" width="102" height="10" as="geometry"/>
                </mxCell>
                <mxCell id="129" value="" style="endArrow=classic;html=1;strokeColor=#000000;fontColor=#000000;startArrow=none;entryX=0.987;entryY=0.641;entryDx=0;entryDy=0;entryPerimeter=0;exitX=0;exitY=0.5;exitDx=0;exitDy=0;" parent="1" source="130" target="18" edge="1">
                    <mxGeometry width="50" height="50" relative="1" as="geometry">
                        <mxPoint x="519" y="874" as="sourcePoint"/>
                        <mxPoint x="489.0000000000001" y="880.08" as="targetPoint"/>
                    </mxGeometry>
                </mxCell>
                <mxCell id="130" value="Approve or reject request" style="text;html=1;strokeColor=none;fillColor=none;align=center;verticalAlign=middle;whiteSpace=wrap;rounded=0;fontColor=#000000;" parent="1" vertex="1">
                    <mxGeometry x="517" y="870" width="150" height="10" as="geometry"/>
                </mxCell>
                <mxCell id="131" value="" style="endArrow=none;html=1;strokeColor=#000000;fontColor=#000000;entryX=1;entryY=0.5;entryDx=0;entryDy=0;exitX=-0.003;exitY=0.841;exitDx=0;exitDy=0;exitPerimeter=0;" parent="1" source="27" target="130" edge="1">
                    <mxGeometry width="50" height="50" relative="1" as="geometry">
                        <mxPoint x="681" y="905" as="sourcePoint"/>
                        <mxPoint x="619" y="900" as="targetPoint"/>
                    </mxGeometry>
                </mxCell>
                <mxCell id="132" value="" style="edgeStyle=none;html=1;strokeColor=#000000;fontColor=#000000;entryX=0.035;entryY=0.329;entryDx=0;entryDy=0;entryPerimeter=0;exitX=1;exitY=0.5;exitDx=0;exitDy=0;" parent="1" source="133" target="18" edge="1">
                    <mxGeometry relative="1" as="geometry">
                        <mxPoint x="299" y="850" as="sourcePoint"/>
                        <mxPoint x="353.2600000000001" y="854.73" as="targetPoint"/>
                    </mxGeometry>
                </mxCell>
                <mxCell id="133" value="Staff leave request" style="text;html=1;strokeColor=none;fillColor=none;align=center;verticalAlign=middle;whiteSpace=wrap;rounded=0;fontColor=#000000;" parent="1" vertex="1">
                    <mxGeometry x="169.5" y="846" width="109.5" height="14" as="geometry"/>
                </mxCell>
                <mxCell id="136" value="" style="endArrow=none;html=1;strokeColor=#000000;entryX=0;entryY=0.5;entryDx=0;entryDy=0;exitX=0.423;exitY=1.097;exitDx=0;exitDy=0;exitPerimeter=0;" parent="1" target="133" edge="1">
                    <mxGeometry width="50" height="50" relative="1" as="geometry">
                        <mxPoint x="97.83000000000004" y="70" as="sourcePoint"/>
                        <mxPoint x="169.5" y="851" as="targetPoint"/>
                        <Array as="points">
                            <mxPoint x="99" y="853"/>
                        </Array>
                    </mxGeometry>
                </mxCell>
                <mxCell id="137" value="" style="endArrow=classic;html=1;strokeColor=#000000;fontColor=#000000;exitX=0.012;exitY=0.613;exitDx=0;exitDy=0;exitPerimeter=0;entryX=1;entryY=0.5;entryDx=0;entryDy=0;" parent="1" source="18" target="138" edge="1">
                    <mxGeometry width="50" height="50" relative="1" as="geometry">
                        <mxPoint x="359" y="900" as="sourcePoint"/>
                        <mxPoint x="289" y="874" as="targetPoint"/>
                    </mxGeometry>
                </mxCell>
                <mxCell id="138" value="Approve or reject request" style="text;html=1;strokeColor=none;fillColor=none;align=center;verticalAlign=middle;whiteSpace=wrap;rounded=0;fontColor=#000000;" parent="1" vertex="1">
                    <mxGeometry x="137.74" y="866" width="140.38" height="14" as="geometry"/>
                </mxCell>
                <mxCell id="139" value="" style="endArrow=classic;html=1;strokeColor=#000000;fontColor=#000000;exitX=0;exitY=0.5;exitDx=0;exitDy=0;" parent="1" source="138" edge="1">
                    <mxGeometry width="50" height="50" relative="1" as="geometry">
                        <mxPoint x="137.73999999999995" y="863" as="sourcePoint"/>
                        <mxPoint x="89" y="70" as="targetPoint"/>
                        <Array as="points">
                            <mxPoint x="89" y="873"/>
                        </Array>
                    </mxGeometry>
                </mxCell>
                <mxCell id="140" value="" style="endArrow=none;html=1;strokeColor=#000000;entryX=0;entryY=0.5;entryDx=0;entryDy=0;exitX=0.335;exitY=1.057;exitDx=0;exitDy=0;exitPerimeter=0;" parent="1" target="141" edge="1">
                    <mxGeometry width="50" height="50" relative="1" as="geometry">
                        <mxPoint x="78.35000000000014" y="69.85000000000014" as="sourcePoint"/>
                        <mxPoint x="148" y="975" as="targetPoint"/>
                        <Array as="points">
                            <mxPoint x="79" y="985"/>
                        </Array>
                    </mxGeometry>
                </mxCell>
                <mxCell id="142" value="" style="edgeStyle=none;html=1;strokeColor=#000000;fontColor=#000000;" parent="1" source="141" target="19" edge="1">
                    <mxGeometry relative="1" as="geometry"/>
                </mxCell>
                <mxCell id="141" value="Staff attendance details" style="text;html=1;strokeColor=none;fillColor=none;align=center;verticalAlign=middle;whiteSpace=wrap;rounded=0;fontColor=#000000;" parent="1" vertex="1">
                    <mxGeometry x="149" y="978" width="130" height="14" as="geometry"/>
                </mxCell>
                <mxCell id="146" value="" style="edgeStyle=none;html=1;strokeColor=#000000;fontColor=#000000;entryX=0;entryY=0.5;entryDx=0;entryDy=0;endArrow=none;" parent="1" source="19" target="145" edge="1">
                    <mxGeometry relative="1" as="geometry">
                        <mxPoint x="489.0000000000001" y="985" as="sourcePoint"/>
                        <mxPoint x="689" y="985" as="targetPoint"/>
                    </mxGeometry>
                </mxCell>
                <mxCell id="145" value="Staff attendance details&amp;nbsp;" style="text;html=1;strokeColor=none;fillColor=none;align=center;verticalAlign=middle;whiteSpace=wrap;rounded=0;fontColor=#000000;" parent="1" vertex="1">
                    <mxGeometry x="523" y="970" width="136" height="30" as="geometry"/>
                </mxCell>
                <mxCell id="147" value="" style="endArrow=none;html=1;strokeColor=#000000;entryX=0;entryY=0.5;entryDx=0;entryDy=0;exitX=0.281;exitY=1.021;exitDx=0;exitDy=0;exitPerimeter=0;" parent="1" edge="1">
                    <mxGeometry width="50" height="50" relative="1" as="geometry">
                        <mxPoint x="69.00999999999999" y="70" as="sourcePoint"/>
                        <mxPoint x="143.93" y="1104" as="targetPoint"/>
                        <Array as="points">
                            <mxPoint x="68.74000000000001" y="1104.15"/>
                        </Array>
                    </mxGeometry>
                </mxCell>
                <mxCell id="150" value="" style="edgeStyle=none;html=1;strokeColor=#000000;fontColor=#000000;entryX=0;entryY=0.5;entryDx=0;entryDy=0;" parent="1" source="148" edge="1">
                    <mxGeometry relative="1" as="geometry">
                        <mxPoint x="359" y="1105" as="targetPoint"/>
                    </mxGeometry>
                </mxCell>
                <mxCell id="148" value="Staff work details" style="text;html=1;strokeColor=none;fillColor=none;align=center;verticalAlign=middle;whiteSpace=wrap;rounded=0;fontColor=#000000;" parent="1" vertex="1">
                    <mxGeometry x="142.93" y="1098" width="96.07" height="14" as="geometry"/>
                </mxCell>
                <mxCell id="154" value="" style="edgeStyle=none;html=1;strokeColor=#000000;fontColor=#000000;entryX=0;entryY=0.5;entryDx=0;entryDy=0;endArrow=none;" parent="1" target="153" edge="1">
                    <mxGeometry relative="1" as="geometry">
                        <mxPoint x="489" y="1105" as="sourcePoint"/>
                        <mxPoint x="689" y="1105" as="targetPoint"/>
                    </mxGeometry>
                </mxCell>
                <mxCell id="153" value="Staff work details&amp;nbsp;" style="text;html=1;strokeColor=none;fillColor=none;align=center;verticalAlign=middle;whiteSpace=wrap;rounded=0;fontColor=#000000;" parent="1" vertex="1">
                    <mxGeometry x="524" y="1090" width="105" height="30" as="geometry"/>
                </mxCell>
            </root>
        </mxGraphModel>
    </diagram>
</mxfile>